<?xml version="1.0" encoding="utf-8"?>
<!-- Generator: Adobe Illustrator 25.4.0, SVG Export Plug-In . SVG Version: 6.00 Build 0)  -->
<svg version="1.1" id="Layer_1" xmlns="http://www.w3.org/2000/svg" xmlns:xlink="http://www.w3.org/1999/xlink" x="0px" y="0px"
	 viewBox="0 0 4213.9 207.6" style="enable-background:new 0 0 4213.9 207.6;" xml:space="preserve">
<style type="text/css">
	.st0{fill:#A435F0;}
	.st1{fill:#0056D2;}
	.st2{fill:#262626;}
	.st3{fill:#C02D28;}
	.st4{opacity:0.4;fill:url(#SVGID_1_);enable-background:new    ;}
	.st5{opacity:0.41;fill:url(#SVGID_00000057838477903972875890000009339328017990155406_);enable-background:new    ;}
	.st6{fill:#0068B5;}
	.st7{fill:#261E7D;}
	.st8{fill:#F68922;}
</style>
<g>
	<path class="st0" d="M64.7,53.1L32.4,34.4L0,53.1V34.4l32.4-18.7l32.4,18.7L64.7,53.1L64.7,53.1z"/>
	<path d="M0,68.8h17V110c0,10.6,7.9,15.8,15.4,15.8c7.5,0,15.4-5.3,15.4-16v-41h17v42.2c0,9.8-3.1,17.4-9.2,22.6
		c-6.2,5.2-13.9,7.7-23.3,7.7c-9.4,0-17.1-2.5-23.1-7.7C3.1,128.3,0,121,0,111.4C0,111.4,0,68.8,0,68.8z M211.3,120
		c-5.1,4.6-11,6.8-17.6,6.8c-12.2,0-20.3-6.9-21.2-17.7h54.8c0,0,0.4-3.5,0.4-6.7c0-10.1-3.2-18.5-9.8-25.4
		c-6.4-6.9-14.8-10.2-25.1-10.2c-10.8,0-19.6,3.4-26.6,10.2c-6.9,6.9-10.4,15.8-10.4,27v0.6c0,11.1,3.5,19.9,10.4,26.5
		c6.9,6.6,16,9.9,27,9.9c12.9,0,23.1-5.1,30.8-13.8C223.9,127.2,211.3,120,211.3,120z M179.1,85.6c3.8-2.9,8.4-4.5,13.6-4.5
		c4.9,0,9,1.5,12.5,4.6c3.3,2.8,5.1,6.3,5.3,10.2h-37.6C173.4,91.9,175.4,88.4,179.1,85.6L179.1,85.6z M381.9,150.6
		c-6.9,16.2-14.1,21.8-25.1,21.8h-7.6v-15h6.2c3.8,0,7.3-1.4,10.7-9.2l3.4-7.8l-29-71.6h17.2l20.6,51.6l21.2-51.6h17.2L381.9,150.6
		L381.9,150.6z M130.7,41.7v33.4c-5.6-5-14.2-7.9-22.6-7.9c-9.9,0-18.4,3.5-25.2,10.6c-6.7,7-10.1,15.7-10.1,26.2
		c0,10.5,3.4,19.2,10.1,26.3c6.9,7,15.3,10.5,25.2,10.5c11.5,0,18.7-4.5,22.6-8v6.5h16.8V41.7L130.7,41.7L130.7,41.7z M125.7,119.5
		c-4.1,4.1-9.2,6.2-15.3,6.2s-10.9-2.1-15-6.2c-3.9-4.1-5.9-9.2-5.9-15.4c0-6.2,2-11.3,5.9-15.4c4.1-4.1,9-6.2,15-6.2
		s11.2,2.1,15.3,6.2c4.2,4.1,6.3,9.2,6.3,15.4C132,110.2,129.9,115.4,125.7,119.5z M314.2,67.4c-12.8,0-19.4,5.3-24,10.4
		c-1.8-3.5-6.9-10.4-18.9-10.4c-10.1,0-16.1,5.1-19.1,8.8v-7.3h-16.7v70.6h16.7V98.8c0-9.5,5.9-16.4,13.7-16.4c8,0,12.6,6,12.6,15.7
		v41.3h16.7V98.8c0-9.7,5.7-16.4,14-16.4c8,0,12.6,6,12.6,15.7v41.3h16.8V95.7C338.8,77.3,328.9,67.4,314.2,67.4L314.2,67.4z"/>
</g>
<g>
	<path class="st1" d="M721.2,104c0-20.5,16.9-37,38-37c21.3,0,38.2,16.5,38.2,37c0,20.3-16.9,37.1-38.2,37.1
		C738,141.1,721.2,124.1,721.2,104z M779.2,104c0-10.2-8.9-19.2-20-19.2c-10.9,0-19.7,9-19.7,19.2c0,10.3,8.9,19.3,19.7,19.3
		C770.2,123.3,779.2,114.3,779.2,104z"/>
	<path class="st1" d="M1103.1,104.5c0-22.4,18.4-37.5,35-37.5c11.4,0,17.9,3.4,22.4,10l1.7-8.8h17.1v71.4h-17.1l-2.1-7.3
		c-5,5.4-11.3,8.8-21.8,8.8C1121.7,141.1,1103.1,126.7,1103.1,104.5L1103.1,104.5z M1161.2,104.4c0-10.9-9-19.6-20.1-19.6
		c-11,0-19.8,8.9-19.8,19.9c0,9.9,9,18.8,19.8,18.8C1152.4,123.3,1161.2,114.4,1161.2,104.4L1161.2,104.4z"/>
	<path class="st1" d="M1082.7,77v-8.2h-18.1V139h18.1v-37.9c0-11.4,5.5-17.3,15.4-17.3c0.7,0,1.2,0,1.8,0.1l3.3-16.9
		C1093.7,67.1,1086.9,70.3,1082.7,77L1082.7,77z"/>
	<path class="st1" d="M897.4,77v-8.2h-18.7l0.1,70.2h18.7l-0.1-37.9c0-11.4,5.7-17.3,15.7-17.3c0.7,0,1.3,0,1.9,0.1l3.4-16.9
		C908.7,67.1,901.7,70.3,897.4,77L897.4,77z"/>
	<path class="st1" d="M804.6,111.7V68h18.2v41.5c0,9.2,5,14.5,13.8,14.5c9.8,0,15.5-6.1,15.5-17.6V68h18.2v71.4h-18.2v-8.3
		c-4.3,6.8-11.3,10-20.9,10C814.8,141.2,804.6,129.2,804.6,111.7L804.6,111.7z"/>
	<path class="st1" d="M984.2,103.9c0-20,14.4-37.1,37.1-36.9c21.1,0,36,16.9,36,36.6c0,2-0.1,4.1-0.4,5.9l-54.5-0.1
		c2.1,8.6,9.2,14.7,19.8,14.8c6.5,0,13.5-2.4,17.7-7.7l12.6,10.1c-6.5,9.2-18,14.5-30.2,14.5C1000.7,140.8,984.2,124.7,984.2,103.9
		L984.2,103.9z M1038.7,96.6c-1-7.2-8.6-12.8-17.4-12.8c-8.6,0-15.6,5.1-18.3,12.7L1038.7,96.6z"/>
	<path class="st1" d="M918.4,124.2l16.5-8.6c2.7,5.9,8.2,9.3,15.9,9.3c7.1,0,9.8-2.2,9.8-5.3c0-11.4-39.2-4.5-39.2-30.6
		c0-14.5,12.8-22,28.5-22c11.9,0,22.6,5.2,28.4,15L962,90.6c-2.4-4.8-7-7.4-12.8-7.4c-5.7,0-8.4,2-8.4,5.2
		c0,11.1,39.2,4.1,39.2,30.6c0,13.8-11.4,22.2-29.7,22.2C934.7,140.9,923.8,135.9,918.4,124.2L918.4,124.2z"/>
	<path class="st1" d="M649.1,103.6c0-20.3,16.7-36.6,37.7-36.6c13.5,0,25.2,6.7,31.9,16.7l-15.8,9c-3.7-5-9.4-8.3-16.2-8.3
		c-10.8,0-19.6,8.9-19.6,19.1c0,10.2,8.9,19.1,19.6,19.1c7,0,13.2-3.6,16.6-9l15.6,9.2c-6.6,10.4-18.6,17.4-32.2,17.4
		C665.9,140.2,649.1,123.5,649.1,103.6L649.1,103.6z"/>
</g>
<g>
	<g>
		<path class="st2" d="M1456.2,59.9h-38.6V94h29v4.8h-29.1v42.8h-5.6V55.1h44.3V59.9z"/>
		<path class="st2" d="M1466.6,141.6h-5.7v-44l-2.2-20.3h5.4l2.2,18c4.2-8.8,10.8-18.6,21.7-18.6c10.6,0,13.4,10.6,13.4,19.2h-5.6
			c-0.1-5.9-0.5-14.4-8.2-14.4c-6.5,0-20.9,10.1-20.9,34.2L1466.6,141.6z"/>
		<path class="st2" d="M1508.3,109.8c0-24.7,12.7-33,24.3-33c10.6,0,24.4,7.1,24.4,33s-13.7,33.1-24.4,33.1
			S1508.3,135.7,1508.3,109.8z M1551.3,109.8c0-12.4-3.1-28.2-18.7-28.2c-15.6,0-18.6,15.9-18.6,28.2s3.1,28.3,18.6,28.3
			C1548,138.1,1551.3,122.1,1551.3,109.8z"/>
		<path class="st2" d="M1572.6,141.6h-5.6v-31.8c0-10.8-0.4-21.6-2.5-32.4h5.3l2.3,18.3h0.2c2.4-9.5,12.5-18.9,22.6-18.9
			c11.5,0,14.8,10,14.8,19.6v45.3h-5.6V99c0-7.3,0-17.4-9.8-17.4c-9.1,0-21.5,9.1-21.5,33.9L1572.6,141.6z"/>
		<path class="st2" d="M1661.2,82.9h-23.3v43.4c0,6.1,2.3,11.9,10.1,11.9c7.1,0,12-5.3,14.8-11.3l5.4,1.3
			c-4,8.2-10.9,14.8-20.4,14.8c-8.2,0-15.5-4-15.5-20.1v-40H1618v-4.8h14.3V57.6h5.6v20.4h23.3L1661.2,82.9z"/>
		<path class="st2" d="M1722,137.1c-7.3,3.2-14.5,5.8-22.7,5.8c-18.6,0-25.5-16.7-25.5-32.8s7.1-33.4,25.8-33.4
			c10.7,0,23.3,7.7,23.3,34h-43.4c1,22.3,10.3,27.4,20.1,27.4c7.2,0,14.1-2.6,20.1-6.3L1722,137.1z M1717.3,105.9
			c0.6-10.9-5.9-24.4-18.4-24.4c-12.5,0-19.8,13.2-19.5,24.4H1717.3z"/>
		<path class="st2" d="M1738.3,141.6h-5.6v-31.8c0-10.8-0.4-21.6-2.5-32.4h5.3l2.3,18.3h0.2c2.4-9.5,12.5-18.9,22.6-18.9
			c11.5,0,14.8,10,14.8,19.6v45.3h-5.6V99c0-7.3,0-17.4-9.8-17.4c-9.1,0-21.5,9.1-21.5,33.9L1738.3,141.6z"/>
		<path class="st2" d="M1831.2,119.2c0,7.8,0.6,15.5,2.9,23l-5.3,0.7l-2.3-10.4c-3.1,6.5-9.7,10.6-16.9,10.4
			c-10.7,0-24.6-8.8-24.6-33.5c0-25.5,16.2-32.7,25-32.7c5.7,0,11.2,1.9,15.7,5.4V52.5h5.6L1831.2,119.2z M1825.6,87.8
			c-4-3.5-8.9-6.3-14.2-6.3c-7.2,0-20.8,4.9-20.8,28.2c0,21.9,11.9,28.3,19.1,28.3c8.1,0,13.2-5.9,15.9-12.7V87.8z"/>
	</g>
	<g>
		<path class="st3" d="M2126.3,106.5c0.1,0.4,0.1,0.9,0.2,1.3c0,0.4,0.1,0.9,0.1,1.3c0,3.1-1.1,6.2-3.1,8.6c-3,3.9-6.2,7.7-9.6,11.2
			c-2.6,2.7-5.4,5.3-8.4,7.6c-2.1,1.7-4.3,3.2-6.7,4.4c-1.4,0.8-3,1.3-4.6,1.5c-2.1,0-4.2-0.6-6-1.6c-1.9-1-3.5-2.6-4.4-4.6
			c0-1.1,0.1-2.2,0.4-3.3c0.3-1.4,0.8-2.8,1.3-4.2c0.6-1.6,1.5-3.6,2.6-5.9c1.1-2.3,2.5-5.2,4.3-8.8c-1.4,0-2.3,0.3-2.8,1
			c-4.1,5.5-7.7,10.1-10.6,13.6c-2.9,3.5-5.5,6.3-7.6,8.4c-1.5,1.6-3.3,3-5.2,4.2c-1.1,0.7-2.4,1-3.7,1.1c-4-0.4-7.5-2.5-9.8-5.7
			c-2.4-3.7-3.7-8-3.5-12.4c-0.1-6.4,1.2-12.8,3.6-18.8c2.2-5.5,5.3-10.5,9.1-15c3.4-4,7.5-7.4,12.1-10c3.8-2.2,8.1-3.5,12.5-3.6
			c2.7-0.1,5.4,0.5,7.8,1.6c2.6,1.4,4.9,3.3,6.8,5.5c2.7-1.9,5.7-3.6,8.8-4.8c1.8-0.8,3.7-1.2,5.6-1.4c1.6,0,3.1,0.8,3.9,2.2
			c-0.4,1.7-1.1,3.8-1.8,6.3c-0.8,2.5-1.6,5.1-2.6,7.9c-0.9,2.8-1.9,5.6-2.8,8.4c-1,2.8-1.9,5.4-2.7,7.9c-0.8,2.5-1.5,4.6-2.1,6.4
			c-0.4,1.3-0.8,2.6-1,3.9c0,0.9,0.6,1.3,1.7,1.3c0.6-0.1,1.3-0.3,1.8-0.7c1.3-0.7,2.4-1.5,3.6-2.4c1.5-1.2,3.3-2.8,5.4-4.8
			S2123.5,109.6,2126.3,106.5L2126.3,106.5z M2095.9,92.1c-2.5-2.3-4.8-3.4-7-3.4c-1.9,0-4.1,1-6.4,3c-2.6,2.3-4.8,4.9-6.7,7.8
			c-2.1,3.2-3.9,6.7-5.2,10.3c-1.3,3.4-2,7.1-2.1,10.7c-0.1,1,0.2,2,0.8,2.8c0.5,0.6,1.2,1,2,1c0.8,0,2.1-0.9,4-2.8
			c2.3-2.3,4.4-4.7,6.4-7.3c2.4-3,4.8-6.5,7.4-10.3C2091.5,100.1,2093.8,96.2,2095.9,92.1L2095.9,92.1z"/>
		<path class="st3" d="M2135.1,92.1c0.4-2.5,1.2-4.9,2.4-7.2c1.1-2.1,2.4-4.1,4-5.8c1.4-1.5,3.1-2.8,5-3.8c1.7-0.9,3.6-1.4,5.5-1.4
			c1.7,0,3.4,0.6,4.7,1.8c1.4,1.3,2.3,3.1,2.5,5.1c-0.7,1.3-1.5,2.6-2.5,3.7c-1.1,1.2-2.2,2.5-3.4,3.7c0.3,2.1,0.8,4,1.7,5.9
			c1,2.2,2,4.5,3,7c1.1,2.6,2,5.2,2.8,7.9c0.8,2.8,1.3,5.7,1.3,8.6c-0.1,3.2-1.1,6.3-2.9,8.9c-2,3-4.5,5.7-7.3,8
			c-2.9,2.4-6.2,4.3-9.7,5.7c-3.2,1.4-6.6,2.1-10,2.2c-3,0-5.9-0.4-8.8-1.2c-2.3-0.7-4.6-1.7-6.6-3c-1.7-1.1-3.2-2.5-4.3-4.2
			c-1-1.4-1.5-3-1.5-4.7c0-2.1,0.3-4.2,1-6.3c0.8-2.2,1.9-4.2,3.4-6.1c0.7-0.9,1.8-2.2,3.4-4c1.6-1.8,3.3-3.8,5.2-6.1
			c1.9-2.3,3.8-4.7,5.9-7.2C2131.8,97.2,2133.5,94.7,2135.1,92.1L2135.1,92.1z M2137.6,103.3c-0.9,1.2-2,2.6-3.4,4.2
			c-1.4,1.6-2.8,3.2-4.4,4.9c-1.6,1.7-3.2,3.5-4.9,5.2c-1.7,1.8-3.3,3.4-4.8,5c1.9,2.5,4.3,4.6,7,6.3c2.3,1.4,4.8,2.2,7.5,2.2
			c2.1,0,4-0.8,5.5-2.3c1.5-1.5,2.3-3.8,2.3-6.9c0-1.6-0.2-3.2-0.5-4.7c-0.4-1.7-0.8-3.3-1.3-4.9c-0.5-1.6-1.1-3.2-1.6-4.7
			C2138.5,106,2138,104.6,2137.6,103.3z"/>
		<path class="st3" d="M2213.1,106.8c0.1,0.4,0.1,0.9,0.2,1.3c0,0.4,0.1,0.9,0.1,1.3c0,3.1-1.1,6.2-3.1,8.6
			c-3.2,4.3-6.7,8.4-10.5,12.1c-2.8,2.7-5.9,5.3-9.1,7.5c-2.3,1.6-4.7,2.9-7.3,3.8c-1.6,0.6-3.4,1-5.1,1c-6.2,0-11.7-3.9-13.8-9.7
			l12-38.6l-3.2,0.6c-0.5-1.5-0.8-3-0.8-4.6c0.1-2,0.6-4,1.5-5.8c0.7-1.5,1.8-2.8,3.2-3.7l3.6-0.4l5.5-17.2c2.1-0.5,4.3-0.8,6.4-0.8
			c2.5-0.1,5.1,0.5,7.4,1.6c1.8,0.8,3.1,2.3,3.7,4.2l-3.1,10.3l12.5-1.3c-0.1,1.9-0.6,3.8-1.4,5.5c-0.8,1.9-2,3.7-3.4,5.2l-11.5,2.5
			l-8.7,29.3c0,3,0.9,4.5,2.8,4.5c1.4,0,3.9-1.2,7.5-3.7S2206.9,113.2,2213.1,106.8z"/>
		<path class="st3" d="M2269,105c0.2,1,0.3,1.9,0.3,2.9c-0.1,1.7-0.5,3.4-1.1,4.9c-0.6,1.7-1.4,3.2-2.4,4.7
			c-6.1,8.2-12.4,14.5-18.7,18.6c-5.7,4-12.5,6.2-19.5,6.3c-7.2,0-12.6-1.8-16.2-5.5c-3.6-3.7-5.4-8.6-5.4-14.7
			c0-2.3,0.3-4.6,0.8-6.9c0.5-2.3,1.1-4.5,1.8-6.7c1.6-4.6,3.8-9,6.6-13c2.5-3.7,5.6-7.1,9-10.1c3.1-2.7,6.7-4.8,10.4-6.4
			c3.4-1.5,7.1-2.3,10.8-2.3c5.4,0,9.6,1.2,12.4,3.5c2.9,2.4,4.5,6,4.3,9.7c0,1.5-0.3,2.9-0.8,4.3c-0.5,1.5-1.2,2.9-2.1,4.2
			c-1,1.2-2.2,2.2-3.5,3.1c-2.2,1.6-4.6,3.2-7,4.5c-2.9,1.7-6.2,3.4-10,5.2c-4.1,1.9-8.2,3.6-12.5,5.1c-0.1,0.5-0.2,1-0.2,1.6
			c0,0.6-0.1,1.3-0.1,2c-0.1,2.2,0.7,4.3,2.2,5.9c1.5,1.5,3.9,2.3,7.2,2.3c3.8,0,8.5-1.7,14.1-5.2
			C2255.3,119.4,2261.8,113.4,2269,105L2269,105z M2241,87.3c-0.8,0.1-1.6,0.5-2.2,1.1c-1.2,1-2.3,2.3-3.1,3.6
			c-1.3,2-2.5,4.1-3.6,6.3c-1.4,2.9-2.5,6-3.4,9.1c3.5-1.5,7-3.3,10.3-5.2c1.9-1.1,3.6-2.4,5.2-3.9c1.3-1.6,1.9-3.6,1.9-5.6
			C2246,89,2244.4,87.3,2241,87.3z"/>
		<path class="st3" d="M2321.4,106.5c0.2,0.4,0.3,0.9,0.3,1.3v1.3c0,1.5-0.3,3-0.9,4.5c-0.6,1.5-1.3,2.8-2.3,4.1
			c-3.1,4.1-6.4,8-9.9,11.7c-2.6,2.7-5.5,5.3-8.5,7.6c-2.1,1.7-4.4,3.1-6.8,4.2c-1.5,0.7-3.1,1.1-4.8,1.3c-2.5,0-5-0.8-7.1-2.2
			c-2.4-1.7-4.4-4.1-5.7-6.8c0.4-2.6,1.1-5.2,2.2-7.6c1.3-3,2.7-5.8,4.3-8.6c1.7-3,3.5-5.9,5.4-8.9c1.9-2.9,3.6-5.7,5.2-8.4
			c0-0.5-0.2-1.1-0.5-1.5c-0.6-0.6-1.3-1.1-2.1-1.4c-1.1-0.4-2.4-0.9-3.7-1.3c-1.3-0.4-2.4-0.8-3.1-1.2c-2.1,3.3-4.5,6.8-7.2,10.4
			c-2.7,3.6-5.6,7.2-8.5,10.7c-2.9,3.5-5.9,6.8-8.9,9.9c-2.7,2.8-5.5,5.5-8.4,8c-0.7-0.6-1.2-1.4-1.5-2.2c-0.3-0.9-0.5-1.9-0.5-2.9
			c0-1.1,0.2-2.3,0.5-3.4c0.3-1.1,0.9-2.1,1.6-3c2.8-2.1,5.3-4.5,7.6-7.2c2.6-2.9,5-6,7.3-9.1c2.2-3.2,4.2-6.2,6-9
			c1.8-2.8,3-5.1,3.8-6.6c-1.5-2.2-2.3-4.7-2.2-7.4c0-3.5,1.2-6.9,3.2-9.7c1.8-2.7,4.8-4.5,8.1-4.8c0.1,1.2,0.3,2.4,0.8,3.5
			c0.6,1.3,1.6,2.4,2.8,3.2c2,1.3,4.2,2.5,6.4,3.4c2.8,1.2,6.6,2.5,11.3,4c2.2,0.6,4.3,1.6,6.3,2.9c1.4,1.1,2.2,2.9,2.2,5.4
			c-0.9,2.7-2,5.3-3.4,7.8c-1.6,2.9-3.3,5.9-5,8.8c-1.8,2.9-3.4,5.7-4.9,8.4c-1.3,2.1-2.2,4.4-2.9,6.8c0,0.6,0.2,1.1,0.7,1.5
			c0.4,0.3,0.9,0.5,1.5,0.5c1-0.2,1.9-0.6,2.8-1.2c1.7-1,3.3-2.2,4.9-3.4c2.2-1.7,4.4-3.6,6.4-5.6
			C2316.4,111.8,2318.9,109.3,2321.4,106.5L2321.4,106.5z"/>
		<path class="st3" d="M2330.2,92.1c0.4-2.5,1.2-4.9,2.4-7.2c1.1-2.1,2.4-4.1,4-5.8c1.4-1.5,3.1-2.8,5-3.8c1.7-0.9,3.6-1.4,5.5-1.4
			c1.7,0,3.4,0.6,4.7,1.8c1.4,1.3,2.3,3.1,2.5,5.1c-0.7,1.3-1.5,2.6-2.5,3.7c-1.1,1.2-2.2,2.5-3.4,3.7c0.3,2.1,0.8,4,1.7,5.9
			c1,2.2,2,4.5,3,7c1.1,2.6,2,5.2,2.8,7.9c0.8,2.8,1.3,5.7,1.3,8.6c-0.1,3.2-1.1,6.3-2.9,8.9c-2,3-4.5,5.7-7.3,8
			c-2.9,2.4-6.2,4.3-9.7,5.7c-3.2,1.4-6.6,2.1-10,2.2c-3,0-5.9-0.4-8.8-1.2c-2.3-0.7-4.6-1.7-6.6-3c-1.7-1.1-3.2-2.5-4.3-4.2
			c-1-1.4-1.5-3-1.5-4.7c0-2.1,0.3-4.2,1-6.3c0.8-2.2,1.9-4.2,3.4-6.1c0.7-0.9,1.8-2.2,3.4-4c1.6-1.8,3.3-3.8,5.2-6.1
			c1.9-2.3,3.8-4.7,5.9-7.2C2326.9,97.2,2328.6,94.7,2330.2,92.1L2330.2,92.1z M2332.7,103.3c-0.9,1.2-2,2.6-3.4,4.2
			c-1.4,1.6-2.8,3.2-4.4,4.9c-1.6,1.7-3.2,3.5-4.9,5.2c-1.7,1.8-3.3,3.4-4.8,5c1.9,2.5,4.3,4.6,7,6.3c2.3,1.4,4.8,2.2,7.5,2.2
			c2.1,0,4-0.8,5.5-2.3c1.5-1.5,2.3-3.8,2.3-6.9c0-1.6-0.2-3.2-0.5-4.7c-0.4-1.7-0.8-3.3-1.3-4.9c-0.5-1.6-1.1-3.2-1.6-4.7
			C2333.5,106,2333.1,104.6,2332.7,103.3L2332.7,103.3z"/>
		<path class="st3" d="M2062.6,31.4c-3,7.9-5.9,16.3-8.5,25.3s-5,17.9-6.9,26.6c-2,8.7-3.6,17-4.8,25c-1.1,6.7-1.7,13.4-1.8,20.2
			c0,2.3,0.3,4.7,1,6.9c0.5,1.7,1.5,3.2,2.9,4.3c-1.9,2.5-4.5,4.4-7.4,5.5c-2.9,1.2-6,1.8-9.1,1.8c-4.1,0.1-8-1.3-11.1-4
			c-3-2.6-4.5-7.1-4.5-13.5c0.1-3.2,0.4-6.4,0.9-9.6c0.6-4.1,1.4-8.8,2.5-14c1.1-5.2,2.4-10.9,3.9-17c1.5-6.1,3.1-12.3,4.9-18.5
			c-0.5,0-1,0-1.5,0.2c-0.4,0.2-0.7,0.5-1,0.9l-42.5,64.8c-4.3,1.6-8.9,2.5-13.5,2.6c-2.5,0.1-5-0.5-7.3-1.6
			c-2.2-1.2-3.8-3.2-4.5-5.6c0.3-3.1,0.7-6.6,1-10.4c0.3-3.8,0.6-7.8,0.9-12c0.3-4.1,0.5-8.2,0.8-12.4c0.2-4.2,0.4-8.2,0.5-12.1
			c0.1-2.3,0.2-4.4,0.2-6.4v-6.1c0-0.6-0.2-1.2-0.4-1.7c-0.3-0.3-0.7-0.4-1.1-0.3c-9.4,16.9-17.5,31.1-24.4,42.6
			c-5.6,9.6-11.7,18.9-18.3,27.8c-5.3,7-10.1,12.1-14.4,15.2c-4.3,3.1-8.5,4.6-12.5,4.6c-4.4,0.1-8.6-1.7-11.5-4.9
			c-3.1-3.3-5.2-7.8-6.3-13.4c0.8,0.3,1.6,0.4,2.4,0.3c4.9,0,9.6-2.1,14.3-6.2c5.3-4.8,10.1-10.2,14.3-16.1
			c4.9-6.6,9.9-14.2,15-22.7c5.1-8.5,10.6-17.1,16.4-25.9c2.2-3.6,4.9-6.9,7.9-9.8c2.3-2.1,5.3-3.3,8.4-3.2c2,0,4.1,0.3,6.1,0.9
			c1.1,0.2,2.1-0.6,2.2-1.6c0-0.1,0-0.2,0-0.3c-0.8-9.4-3.6-16.5-8.5-21.5c-4.9-5-11.7-7.4-20.6-7.5c-7.1,0-14.2,1.7-20.5,5.1
			c-6.3,3.4-12,8-16.6,13.5c-9.8,12-15.2,26.9-15.2,42.4c0,5.3,1.6,8.8,4.9,10.4c-1.9,2.6-4.3,4.7-7.1,6.3c-2.7,1.5-5.8,2.3-8.8,2.3
			c-4.3,0.1-8.6-1.5-11.7-4.5c-3.2-3-4.8-7.8-4.8-14.4c0-7.3,1.2-14.5,3.6-21.3c2.4-6.8,5.6-13.3,9.7-19.3c4.1-6.1,9-11.7,14.5-16.6
			c5.5-4.9,11.5-9.2,17.9-12.8c6.3-3.6,12.9-6.4,19.8-8.4c6.7-1.9,13.6-3,20.6-3c17,0,29.8,5.3,38.3,15.8
			c8.6,10.5,12.8,26.9,12.8,49.2c0,1.6,0,3.8-0.1,6.4s-0.1,5.4-0.3,8.1c-0.1,2.8-0.2,5.4-0.3,7.7s-0.2,4.1-0.3,5.1
			c0.5,0,1,0,1.5-0.2c0.4-0.2,0.6-0.5,0.8-0.9l45.6-66.6c1.4-2.3,2.7-3.5,3.8-3.5c0.3,0,0.8,0,1.5-0.1c0.5,0,1-0.1,1.5-0.3
			c1.7-2,4.4-2.9,8-2.9c2.6,0.1,5.3,0.5,7.8,1.2C2056.6,28.2,2059.7,29.6,2062.6,31.4L2062.6,31.4z"/>
	</g>
	
		<linearGradient id="SVGID_1_" gradientUnits="userSpaceOnUse" x1="1898.6417" y1="-618.1149" x2="1957.5957" y2="-618.1149" gradientTransform="matrix(1 0 0 -1 0 -525.2348)">
		<stop  offset="0.67" style="stop-color:#000000;stop-opacity:0"/>
		<stop  offset="1" style="stop-color:#000000"/>
	</linearGradient>
	<path class="st4" d="M1957.6,72.1c0-0.6-0.2-1.2-0.4-1.7c-0.3-0.3-0.7-0.4-1.1-0.3c-9.4,16.9-17.5,31.1-24.4,42.6
		c-5.6,9.6-11.7,18.9-18.3,27.8c-5.3,7-18.5-13.9-13.7-20.5c4.9-6.6,9.8-14.2,15-22.7s10.6-17.1,16.4-25.9c2.2-3.6,4.9-6.9,7.9-9.8
		c2.3-2.1,5.3-3.3,8.4-3.2c2,0,4.1,0.3,6.1,0.9c1.1,0.2,2.1-0.6,2.2-1.6c0-0.1,0-0.2,0-0.3c-0.3-3.5-0.9-7.1-2-10.4
		c-0.5-1.5-0.9-2.4-1-2.8c3.4,6.9,4.7,16.3,5,22.5C1957.6,68.1,1957.6,72.1,1957.6,72.1L1957.6,72.1z"/>
	
		<linearGradient id="SVGID_00000048489049136482100890000001340071815008734372_" gradientUnits="userSpaceOnUse" x1="2002.8127" y1="-615.6172" x2="2034.0988" y2="-561.4305" gradientTransform="matrix(1 0 0 -1 0 -525.2348)">
		<stop  offset="0.4" style="stop-color:#000000;stop-opacity:0"/>
		<stop  offset="1" style="stop-color:#3D3D3D"/>
	</linearGradient>
	<path style="opacity:0.41;fill:url(#SVGID_00000048489049136482100890000001340071815008734372_);enable-background:new    ;" d="
		M2037.5,29c-1.6,2.8-9.6,31.1-13,41.4c-0.6-0.1-1.2,0-1.7,0.3c-5.2,3.7-19.8,6.7-22.1,5.9c5.4-7.6,24.8-36.2,30-43.7
		c0.3-0.5,1.9-3.4,3.8-3.5c0.1,0,0.4,0,1.2-0.1C2036.4,29.2,2036.9,29.1,2037.5,29z"/>
</g>
<g>
	<rect x="2589.8" y="21.2" class="st6" width="22.7" height="22.7"/>
	<g>
		<path d="M2611.9,139.5V57.7h-21.5v81.8H2611.9z M2754.8,140.3v-20c-3.2,0-5.8-0.2-7.8-0.5c-2.3-0.3-4-1.1-5.1-2.3
			s-1.9-2.7-2.3-4.8c-0.3-2-0.5-4.7-0.5-7.9V76.1h15.6V57.7h-15.6V25.8h-21.6v79.1c0,6.7,0.6,12.4,1.7,16.9
			c1.1,4.4,3.1,8.1,5.7,10.8s6.2,4.7,10.5,5.9c4.4,1.2,9.9,1.8,16.4,1.8L2754.8,140.3L2754.8,140.3z M2878.3,139.5v-120h-21.6v120
			H2878.3z M2696.9,65.7c-6-6.5-14.4-9.7-25.1-9.7c-5.2,0-9.9,1.1-14.1,3.2c-4.2,2.1-7.8,5-10.7,8.7l-1.2,1.5v-1.4V57.7h-21.3v81.8
			h21.4V95.9v3c0-0.5,0-1,0-1.5c0.2-7.7,2.1-13.3,5.7-17c3.8-3.9,8.4-5.8,13.7-5.8c6.2,0,11,1.9,14.1,5.7c3.1,3.7,4.7,9,4.7,15.7
			l0,0v0.2l0,0l0,0v43.2h21.7V93C2705.9,81.4,2702.8,72.2,2696.9,65.7z M2845.6,98.5c0-5.9-1.1-11.4-3.1-16.6
			c-2.1-5.1-5-9.6-8.6-13.5c-3.7-3.9-8.2-6.9-13.3-9.1c-5.2-2.2-10.9-3.2-17.1-3.2c-5.9,0-11.5,1.1-16.7,3.3
			c-5.2,2.3-9.7,5.3-13.5,9.1c-3.8,3.8-6.9,8.3-9.1,13.5c-2.3,5.2-3.3,10.7-3.3,16.7s1.1,11.5,3.2,16.7c2.1,5.2,5.1,9.7,8.8,13.5
			c3.7,3.8,8.3,6.9,13.7,9.1c5.3,2.3,11.2,3.4,17.5,3.4c18.3,0,29.6-8.3,36.4-16.1l-15.5-11.8c-3.2,3.9-11,9.1-20.7,9.1
			c-6.1,0-11.1-1.4-14.9-4.2c-3.8-2.7-6.4-6.6-7.8-11.4l-0.2-0.7h64.3V98.5L2845.6,98.5z M2781.5,90.9c0-6,6.9-16.4,21.7-16.5
			c14.8,0,21.7,10.4,21.7,16.4L2781.5,90.9z"/>
		<path d="M2902.9,128.8c-0.4-1-1-1.8-1.7-2.5c-0.7-0.7-1.5-1.3-2.5-1.7c-1-0.4-2-0.6-3.1-0.6c-1.1,0-2.1,0.2-3.1,0.6
			c-1,0.4-1.8,1-2.5,1.7c-0.7,0.7-1.3,1.5-1.7,2.5c-0.4,1-0.6,2-0.6,3.1c0,1.1,0.2,2.1,0.6,3.1s1,1.8,1.7,2.5
			c0.7,0.7,1.5,1.3,2.5,1.7s2,0.6,3.1,0.6c1.1,0,2.1-0.2,3.1-0.6s1.8-1,2.5-1.7s1.3-1.5,1.7-2.5c0.4-1,0.6-2,0.6-3.1
			C2903.5,130.9,2903.3,129.8,2902.9,128.8z M2901.6,134.5c-0.3,0.8-0.8,1.5-1.4,2.1c-0.6,0.6-1.3,1.1-2.1,1.4
			c-0.8,0.3-1.6,0.5-2.6,0.5c-0.9,0-1.8-0.2-2.6-0.5c-0.8-0.3-1.5-0.8-2.1-1.4c-0.6-0.6-1.1-1.3-1.4-2.1c-0.3-0.8-0.5-1.6-0.5-2.6
			c0-0.9,0.2-1.8,0.5-2.6c0.3-0.8,0.8-1.5,1.4-2.1c0.6-0.6,1.3-1.1,2.1-1.4c0.8-0.3,1.6-0.5,2.6-0.5c0.9,0,1.8,0.2,2.6,0.5
			c0.8,0.3,1.5,0.8,2.1,1.4c0.6,0.6,1.1,1.3,1.4,2.1c0.3,0.8,0.5,1.6,0.5,2.6C2902.2,132.9,2901.9,133.7,2901.6,134.5z
			 M2897.1,132.6c0.6-0.1,1.1-0.3,1.5-0.7s0.6-1,0.6-1.8c0-0.9-0.2-1.5-0.8-2c-0.5-0.5-1.4-0.7-2.4-0.7h-3.6v9.1h1.7v-3.7h1.2
			l2.3,3.7h1.8L2897.1,132.6z M2896.2,131.3c-0.2,0-0.5,0-0.8,0h-1.2v-2.6h1.2c0.2,0,0.5,0,0.8,0c0.2,0,0.5,0.1,0.7,0.2
			c0.2,0.1,0.4,0.2,0.5,0.4s0.2,0.4,0.2,0.7c0,0.3-0.1,0.6-0.2,0.7c-0.2,0.2-0.3,0.3-0.5,0.4
			C2896.7,131.2,2896.4,131.3,2896.2,131.3z"/>
	</g>
</g>
<g id="logo">
	<g>
		<path class="st7" d="M3492.9,139.3l-4.5-12.1H3458l-4.5,12.1h-17.1l27.4-71.1h19l27.4,71.1H3492.9z M3473.2,83.4l-11,30.6h22.2
			L3473.2,83.4z M3540.6,103.8c0-21.9,16.5-36.8,37.9-36.8c15.6,0,24.6,8.4,29.6,17.4l-13,6.4c-3.2-6.2-9.6-10.2-16.6-10.3
			c-13,0-22.3,9.9-22.3,23.3s9.4,23.3,22.4,23.3c7-0.2,13.4-4.1,16.6-10.3l13,6.3c-5,8.9-14.1,17.5-29.6,17.5
			C3557.1,140.6,3540.6,125.7,3540.6,103.8z M3616,139.3V68.3h15.2V126h30v13.3H3616z M3664.1,103.8c0-21.4,15.7-36.8,37.2-36.8
			s37,15.3,37,36.8s-15.7,36.7-37.1,36.7C3679.8,140.6,3664.1,125.2,3664.1,103.8z M3722.8,103.8c0-13.3-8.4-23.3-21.5-23.3
			s-21.6,10-21.6,23.3s8.4,23.3,21.6,23.3S3722.8,117,3722.8,103.8z M3747.9,110.9V68.3h15.4v42.2c0,9.9,5.8,16.7,16.7,16.7
			s16.6-6.8,16.6-16.7V68.3h15.4v42.6c0,17.6-10.4,29.7-32.1,29.7S3747.9,128.4,3747.9,110.9L3747.9,110.9z M3825.5,139.3V68.3h28
			c22.3,0,37.7,14.2,37.7,35.5c0,21.5-15.4,35.6-37.6,35.6H3825.5z M3875.8,103.7c0-12.5-7.7-22.2-22.2-22.2h-13V126h12.9
			C3867.6,126,3875.8,115.9,3875.8,103.7z M3926,103.8c0-22.5,17-36.8,37.9-36.8c14.7,0,24,7.5,29.3,15.9l-12.4,6.8
			c-3.7-5.7-10-9.2-16.8-9.3c-13,0-22.4,9.9-22.4,23.3s9.4,23.3,22.4,23.3c5.5,0,10.8-2,15-5.5v-8.5h-18.7V100h33.9v27.2
			c-7.6,8.6-18.6,13.5-30.1,13.3C3943,140.6,3926,126.2,3926,103.8z M4005.2,110.9V68.3h15.4v42.2c0,9.9,5.8,16.7,16.7,16.7
			s16.6-6.8,16.6-16.7V68.3h15.4v42.6c0,17.6-10.4,29.7-32.1,29.7S4005.2,128.4,4005.2,110.9L4005.2,110.9z M4123,139.3l-13.9-25.3
			H4098v25.2h-15.1v-71h33.2c14.8,0,24,9.7,24,22.9c0,12.5-8,19.3-15.6,21.1l16.1,27.1L4123,139.3z M4124.5,91
			c0-5.9-4.6-9.5-10.5-9.5h-16v19.2h16C4120,100.7,4124.5,97.1,4124.5,91z M4149.8,110.9V68.3h15.4v42.2c0,9.9,5.7,16.7,16.7,16.7
			s16.6-6.8,16.6-16.7V68.3h15.4v42.6c0,17.6-10.4,29.7-32.1,29.7S4149.8,128.4,4149.8,110.9L4149.8,110.9z M3568.1,173.9h4.2
			l8.9,24h-4.7l-1.7-4.9h-9.1l-1.7,4.9h-4.8L3568.1,173.9z M3573.2,188.7l-3.1-8.8l-3,8.8H3573.2z M3614.4,173.9h8.9
			c4.4-0.2,8.1,3.3,8.3,7.7c0.2,4.4-3.3,8.1-7.7,8.3c-0.2,0-0.4,0-0.6,0h-4.4v8h-4.5V173.9z M3623.3,185.5c2,0,3.6-1.6,3.6-3.6
			s-1.6-3.6-3.6-3.6l0,0h-4.4v7.2H3623.3z M3646.3,173.9h4.6v19.6h11.2v4.4h-15.8L3646.3,173.9z M3675.4,188.7v-14.8h4.6v14.8
			c0,2.7,2.2,4.9,4.9,4.9s4.9-2.2,4.9-4.9v-14.8h4.6v14.8c0,5.3-4.3,9.5-9.5,9.5C3679.6,198.2,3675.4,194,3675.4,188.7z
			 M3710.3,173.9h9.5c4.2-0.2,7.8,3.1,8,7.4c0,0,0,0,0,0.1c0,5.3-5.1,7-5.1,7l5.7,9.5h-5.1l-4.9-8.8h-3.4v8.8h-4.6V173.9z
			 M3719.8,184.7c1.8,0.3,3.5-0.9,3.8-2.7c0.3-1.8-0.9-3.5-2.7-3.8c-0.4-0.1-0.8-0.1-1.1,0h-4.9v6.5L3719.8,184.7z M3749.1,173.9
			h4.2l8.9,24h-4.7l-1.7-4.9h-9.1l-1.7,4.9h-4.8L3749.1,173.9z M3754.2,188.7l-3.1-8.8l-3,8.8H3754.2z M3775.6,173.9h4.6v19.6h11.2
			v4.4h-15.8V173.9z M3804.5,190.2h4.6c0,2.1,1.5,3.6,4,3.6c2.7,0,4-1.3,4-2.9c0-4.4-12.4-2.1-12.4-10.4c0-3.7,3.2-6.9,8.4-6.9
			c4.8,0,8,3.2,8,7.6h-4.4c0.1-1.8-1.3-3.4-3.1-3.4c-0.2,0-0.3,0-0.5,0c-2.3,0-3.6,1.3-3.6,2.6c0,4.2,12.3,1.9,12.3,10.7
			c0,3.4-3.4,6.8-8.8,6.8S3804.5,194.8,3804.5,190.2L3804.5,190.2z M3836.6,173.9h4.6v24h-4.6V173.9z M3856,185.8
			c-0.1-6.5,5.1-11.9,11.6-12.1c5.1,0,9.5,3.6,10.6,8.5h-4.7c-0.8-2.6-3.2-4.3-5.9-4.2c-3.8,0-7,3.3-7,7.8c0,4.5,3.2,7.8,7,7.8
			c2.8,0,5.2-1.8,6.1-4.4h-6.3v-4h11.2v12.6h-3.2l-1-2.3c-1.9,1.6-4.3,2.5-6.8,2.5C3861,197.9,3855.8,192.4,3856,185.8
			C3856,185.9,3856,185.8,3856,185.8z M3894.3,173.9h4.6v9.5h10.1v-9.5h4.5v24h-4.5v-10.1h-10.1v10.1h-4.6V173.9z M3934.8,178.2h-7
			v-4.4h18.6v4.4h-7v19.6h-4.6L3934.8,178.2z M3979,185.8c-0.1-6.5,5.1-11.9,11.6-12.1c5.1,0,9.5,3.6,10.6,8.5h-4.7
			c-0.8-2.6-3.2-4.3-5.9-4.2c-3.8,0-7,3.3-7,7.8c0,4.5,3.2,7.8,7,7.8c2.7,0,5.1-1.6,6.1-4.2h4.7c-1.2,5-5.7,8.6-10.8,8.6
			C3984.1,197.9,3978.9,192.4,3979,185.8C3979,185.9,3979,185.8,3979,185.8z M4014.8,185.8c0.3-6.4,5.8-11.3,12.2-11
			c6.4,0.3,11.3,5.8,11,12.2c-0.3,6.2-5.4,11-11.6,11C4019.8,197.8,4014.6,192.4,4014.8,185.8
			C4014.8,185.8,4014.8,185.8,4014.8,185.8z M4033.4,185.8c0-4.5-3.3-7.8-7-7.8s-7,3.3-7,7.8c0,4.5,3.2,7.8,7,7.8
			S4033.4,190.4,4033.4,185.8z M4052.7,173.9h4l8.2,17.7l8.2-17.7h4v24h-4.5v-13.3l-6.1,13.3h-3.1l-6-13.3v13.3h-4.6V173.9z
			 M4093.1,173.9h8.9c4.4-0.2,8.1,3.3,8.3,7.7c0.2,4.4-3.3,8.1-7.7,8.3c-0.2,0-0.4,0-0.6,0h-4.4v8h-4.6L4093.1,173.9z M4102.1,185.5
			c2,0,3.6-1.6,3.6-3.6s-1.6-3.6-3.6-3.6l0,0h-4.4v7.2H4102.1z M4129.8,173.9h4.2l8.9,24h-4.7l-1.7-4.9h-9.1l-1.7,4.9h-4.8
			L4129.8,173.9z M4134.9,188.7l-3.1-8.8l-3,8.8H4134.9z M4156.4,173.9h4l10.7,15.6v-15.6h4.5v24h-3.9l-10.6-15.6v15.6h-4.6
			L4156.4,173.9z M4197.2,188.7l-7.8-14.8h4.9l5.1,10.3l5.1-10.3h4.9l-7.8,14.8v9.2h-4.5V188.7z"/>
	</g>
	<g>
		<path class="st8" d="M3220,126.4c-0.1,0.3-0.2,0.6-0.3,0.9l3.3,1.1c0.7-2.4,1.3-4.8,1.6-7.3l-3.6,0
			C3220.8,122.9,3220.4,124.6,3220,126.4z M3221,99.6c-1-2.3-2.3-4.5-3.7-6.5l-2.8,2c1.3,1.9,2.5,3.9,3.4,6L3221,99.6z M3212.4,87.4
			c-1.8-1.7-3.7-3.3-5.8-4.7l-1.9,2.9c1.9,1.3,3.7,2.7,5.3,4.3L3212.4,87.4z M3216.9,134.1l-0.2,0.3h-0.1l-0.9-0.9l-0.1-0.1h-0.2
			l-0.1-0.1l-0.1-0.1l-0.1-0.1l-0.1-0.1l-0.1-0.1v-0.1h-1.2v-0.1c-0.5-0.6-1-1.2-1.5-1.8l-2.9,0.9c1.5,1.9,3,3.7,4.7,5.5l1.6-1.5
			c-0.6,1-1.2,2-1.9,2.9l-0.3,0.3h-0.3l2.7,2.2c1.6-2,2.9-4.1,4.1-6.3L3216.9,134.1z M3202.8,148.8l1.7,3c2.2-1.3,4.2-2.7,6.1-4.4
			l-2.3-2.6C3206.7,146.3,3204.8,147.7,3202.8,148.8z M3303.9,63.6c2.1-1,4.2-1.8,6.4-2.4l0.2-0.1l-1.1-3.8l-0.2,0.1
			c-2.4,0.7-4.7,1.6-6.9,2.6l-0.2,0.1l1.7,3.6L3303.9,63.6z M3297.4,67.3l0.1-0.1h0.2v-0.1l0.4-0.2l-2.2-3.3l-0.2,0.1
			c-2.1,1.4-4,2.8-5.9,4.5l-0.2,0.2l2.6,2.9l0.2-0.2c0.3-0.3,0.6-0.5,0.9-0.8l0.1-0.1h0.1l0.1-0.2l0.2-0.1V70l0.2-0.1v-0.1h0.2v-0.1
			l0.3-0.1v-0.1h0.1v-0.1h0.2v-0.1h0.1l0.4-0.3l0.1-0.1h0.1l0.1-0.1l0.1-0.1l0.1-0.1c0,0,0.1-0.1,0-0.1h0.1l0.2-0.1h0.2v-0.1h0.3
			v-0.1l0.4-0.3L3297.4,67.3z M3283.6,81.7l0.1-0.2c1-1.6,2.2-3.2,3.4-4.7l0.1-0.1h0.1v-0.1h0.2v-0.2l0.1-0.2h0.1V76l0.2-0.2l-3-2.6
			l-0.2,0.2c-1.6,1.9-3.1,3.9-4.4,6l-0.1,0.2l3.2,1.9L3283.6,81.7z M3278.2,94.2v-0.3l0.1-0.2c0.6-2.1,1.3-4.2,2.2-6.2l0.1-0.2
			l-3.6-1.6l-0.1,0.2c-1,2.3-1.8,4.6-2.5,7l-0.1,0.2l3.5,1L3278.2,94.2z M3276.5,107.4v-3.3c0.1-1.2,0.2-2.4,0.3-3.5v-0.2l-3.9-0.5
			v0.2c-0.2,1.3-0.3,2.7-0.4,4.1c0,1.1-0.1,2.2,0,3.3v0.3l3.9-0.1L3276.5,107.4z M3278.8,121.1l-0.1-0.2c-0.7-2.2-1.2-4.4-1.6-6.6
			V114l-3.6,0.6h-0.2v0.2c0.4,2.4,1,4.8,1.7,7.2l0.1,0.2l3.5-1.1L3278.8,121.1z M3283.6,131.4L3283.6,131.4L3283.6,131.4l-0.2-0.3
			l-0.1-0.1v-0.2h-0.1l-0.1-0.1h-0.1v-0.2h-0.1v-0.1h-0.1l-0.4-0.7l-0.2-0.4l-0.2-0.3l-0.2-0.4v-0.6h-0.1c-0.2-0.3-0.3-0.6-0.5-0.9
			l-0.1-0.2l-3.7,1.7l0.1,0.2c1.1,2.2,2.3,4.4,3.7,6.4l0.1,0.2l3.3-2.2l-0.1-0.2C3284.3,132.6,3283.9,132.1,3283.6,131.4z
			 M3283.4,131.4L3283.4,131.4L3283.4,131.4L3283.4,131.4z M3283.3,131.4L3283.3,131.4L3283.3,131.4z M3303.6,149.3l-0.2-0.1v-0.1
			h-0.2l-0.2-0.1V149h-0.1v-0.1h-0.3l-0.2-0.1v-0.1h-0.2v-0.2h-0.2l-0.2-0.1v-0.1h-0.2l-0.2-0.2h-0.3l-0.4-0.2l-0.2-0.2h-0.2
			l-0.9-0.5l-2,3.4l0.2,0.1c2.1,1.3,4.3,2.4,6.6,3.3l0.2,0.1l1.5-3.6l-0.2-0.1C3304.9,149.9,3304.2,149.7,3303.6,149.3z
			 M3302.2,148.9L3302.2,148.9L3302.2,148.9z M3323.1,88.3v4.3l3.4,0.2c0-1,0.1-2,0.1-3c0-1.4,0-2.8-0.1-4.2L3323.1,88.3z
			 M3208.4,124.1c-1.2-2-2.3-4-3.2-6.1l-3.1,1.4c1,2.2,2.1,4.3,3.4,6.4L3208.4,124.1z M3316,121.4l3,1.6c1.1-2.1,2.2-4.3,3-6.6
			l-3.2-1.3C3318,117.3,3317.1,119.4,3316,121.4z M3316.8,64.8L3316.8,64.8L3316.8,64.8l0.1,0.2c0.5,1,0.9,2,1.4,3l3.2-1.3
			c-0.9-2.2-2-4.4-3.2-6.5l-3,1.7c0.5,0.9,1,1.8,1.4,2.7L3316.8,64.8z M3199.6,93.2v-1.4h-3.4v1c0,2.1,0.1,4.2,0.3,6.2l3.4-0.3
			C3199.7,96.6,3199.7,94.9,3199.6,93.2z M3321.1,108.7l3.3,0.9c0.6-2.3,1.1-4.7,1.5-7.1l-3.3-0.5
			C3322.2,104.2,3321.7,106.5,3321.1,108.7z M3196.7,84.1l3.4,0.4c0.3-2.3,0.7-4.5,1.2-6.8l-3.3-0.8c-0.1,0.4-0.1,0.9-0.2,1.3
			c-1.6-0.6-3.2-1.1-4.9-1.5l-0.8,3.3c1.7,0.4,3.4,0.9,5,1.6C3197,82.5,3196.8,83.3,3196.7,84.1z M3233.5,147.5h-0.4l-1.6,3.1
			c2.1,1.1,4.3,2.1,6.6,3l1.2-3.2c-2-0.8-4-1.6-5.9-2.6L3233.5,147.5z M3320.8,74.9c0.4,1.5,0.8,3,1.1,4.5v0.2
			c0.1,0.4,0.1,0.7,0.2,1l3.4-0.6c-0.4-2.4-1-4.7-1.7-7.1l-3.3,1L3320.8,74.9z M3310.9,129.4c-0.8,1-1.6,2-2.4,3l2.6,2.2
			c1.6-1.8,3-3.7,4.4-5.7l-2.8-1.9C3311.9,128,3311.4,128.8,3310.9,129.4z M3301.5,139.4l-0.1,0.1l-0.1,0.1h-0.1l-0.1,0.1h-0.1
			l-0.1,0.1l-0.1,0.1l-0.1,0.1l-0.1,0.1l-0.1,0.1c-0.7,0.5-1.4,1.1-2,1.6l2,2.8c1.9-1.4,3.8-3,5.6-4.6l-2.3-2.5
			C3302.8,138.2,3302.2,138.8,3301.5,139.4z M3291.7,146.2l2.3-2.8l-0.2-0.2c-0.8-0.7-1.6-1.4-2.4-2.1h-0.1V141h-0.2l-0.1-0.2h-0.1
			v-0.1h-0.1l-0.1-0.1c-0.7-0.6-1.3-1.3-1.9-2l-0.2-0.2l-2.7,2.4l-0.2,0.2l0.2,0.2c1.7,1.8,3.5,3.5,5.4,5.1l0.1,0.1
			c-1,0.6-2,1.1-3.1,1.6h-0.4l-1.6,0.7l1.4,3.1c2.2-1,4.4-2.1,6.5-3.3l-1.7-3C3292.2,145.9,3292,146.1,3291.7,146.2z M3225.8,142.8
			h-0.4c-1.1-0.8-2.3-1.7-3.4-2.6h-0.2l-2.2,2.6c1.9,1.6,3.8,3,5.8,4.4l1.9-2.9l-1.5-1L3225.8,142.8z M3228.5,84.7v2.6h3.4
			c0-2.6-0.4-5.3-1.1-7.8l-3.3,1C3228,81.8,3228.3,83.2,3228.5,84.7z M3220.5,109c0,0.1,0,0.3,0.1,0.4v0.4c0.2,0.9,0.3,1.9,0.4,2.8
			c0,0,0,0.1,0,0.1c0,0.1,0,0.1,0,0.2v0.4l3.4-0.2c-0.1-1.6-0.3-3.2-0.6-4.8c-0.2-0.9-0.4-1.8-0.6-2.6l-2.1,0.5l-1.5-1.9l-0.7,0.5
			h-0.2c-1.4,1.5-3,2.9-4.8,4l1.3,3.2C3217.1,111.2,3218.9,110.2,3220.5,109z M3222,70.9h0.8c0.4,0.5,0.8,1.1,1.2,1.7l2.9-1.9
			c-1.4-2.2-3.2-4.2-5.2-5.9l-2.2,2.6c0.6,0.5,1.2,1.1,1.8,1.7L3222,70.9z M3205.2,113.9c0.8,0,1.6,0,2.5-0.1l-0.3-3.4
			c-0.6,0-1.1,0.1-1.7,0.1h-1.6c-0.6,0-1.2-0.2-1.8-0.2c-0.5-1.7-1-3.5-1.3-5.2l-3.5,0.7c0.5,2.4,1.1,4.7,1.9,7l0.6-0.2l-0.1,0.9
			C3201.6,113.8,3203.4,113.9,3205.2,113.9z M3227.5,94.1L3227.5,94.1c-0.1,0.4-0.2,0.6-0.3,1h-0.1l-0.1,0.1c-0.6,1.8-1.5,3.5-2.5,5
			l2.9,1.9c1.1-1.6,2-3.3,2.7-5.1c0.3-0.7,0.5-1.3,0.7-2L3227.5,94.1L3227.5,94.1z M3178.9,92.2c0.5,2.6,1.4,5.1,2.6,7.4l3.1-1.6
			c-1.1-2-1.8-4.2-2.3-6.5L3178.9,92.2z M3189.6,104.5h-0.5l-2.4,2.4c1.8,1.9,4,3.5,6.3,4.7l1.6-3c-1.6-0.9-3.1-1.9-4.4-3.1
			L3189.6,104.5z"/>
		<path class="st8" d="M3326.5,48.8c-0.9,0-1.8-0.1-2.7-0.1c-1.6,0-3.2,0.1-4.8,0.2c-23.9-31.8-69-38.2-100.8-14.3
			c-7,5.3-13,11.7-17.6,19.1c-9.9,1.4-18.6,7.2-23.9,15.7c-23.3,3.7-40.5,23.7-40.6,47.3c0,26,21.2,47.3,47.4,47.8h141.6
			c31.9-0.6,57.3-27,56.7-59C3381.2,75,3357,50.2,3326.5,48.8L3326.5,48.8z M3325,154.1h-44.2l-0.9-2.8l-1.1,0.3h-0.3
			c-1.7,0.5-3.5,0.9-5.2,1.2l0.2,1.1h-7v-0.2c-1,0.1-2,0.1-2.9,0.2h-10.8l0.1-0.6c-0.9-0.1-1.8-0.3-2.7-0.4h-0.7
			c-1.1-0.2-2.2-0.5-3.3-0.8l-0.5,2h-48.1l-0.9-2.3c-1.8,0.7-3.6,1.2-5.5,1.5h-0.5l-0.5,0.1h-0.1l0.1,0.6h-6.3
			c-20.5-0.2-37.5-16.9-37.5-37.4c0-19.1,14.3-35.1,33.2-37.3c-0.5,1.6-0.9,3.3-1.1,5l3.4,0.4v-0.8c0.2-0.8,0.4-1.6,0.6-2.4v-0.2
			h0.1c2.4-9.4,10.4-16.4,20.1-17.4c-1,2-1.8,4-2.6,6.1l3.2,1.2c0.7-1.9,1.5-3.7,2.3-5.5v-0.1l0.2-0.4l-2.1-1c0.4,0,0.9-0.1,1.3-0.1
			h1.4c0.4-0.9,0.9-1.7,1.4-2.5l-0.3,2.7c1.4,0.2,2.8,0.4,4.2,0.9h0.6l0.8,0.3h0.7l0.4,0.2l1.3-3.2l-0.5-0.2
			c-2.2-0.8-4.4-1.4-6.7-1.6c0.7-1.2,1.4-2.3,2.2-3.5c0.3-0.4,0.6-0.9,0.9-1.3c20-27.5,58.5-33.6,86-13.5c4.3,3.2,8.2,6.9,11.6,11
			l0.6,0.8c1.5,1.9,2.9,3.9,4.2,6c3.2-0.7,6.4-1,9.7-1c0.7,0,1.5,0,2.2,0.1c26.2,1.1,46.6,23.3,45.5,49.6
			C3370.3,133.7,3350,153.6,3325,154.1L3325,154.1z"/>
	</g>
</g>
</svg>
