<?xml version="1.0" encoding="utf-8"?>
<!-- Generator: Adobe Illustrator 24.1.0, SVG Export Plug-In . SVG Version: 6.00 Build 0)  -->
<svg version="1.1" id="Capa_1" xmlns="http://www.w3.org/2000/svg" xmlns:xlink="http://www.w3.org/1999/xlink" x="0px" y="0px"
	 viewBox="0 0 223.3 223.3" style="enable-background:new 0 0 223.3 223.3;" xml:space="preserve">
<style type="text/css">
	.st0{fill:#FFFFFF;}
</style>
<g>
	<g>
		<path class="st0" d="M2.07,8.03v14.55h2.51V8.03c0-1.9,1.55-3.45,3.45-3.45h14.54V2.07H8.03C4.74,2.07,2.07,4.74,2.07,8.03z"/>
		<path class="st0" d="M4.58,215.27v-14.55H2.07v14.55c0,3.29,2.67,5.96,5.96,5.96h14.54v-2.51H8.03
			C6.13,218.72,4.58,217.17,4.58,215.27z"/>
		<path class="st0" d="M218.72,215.27c0,1.9-1.55,3.45-3.45,3.45h-14.54v2.51h14.54c3.29,0,5.96-2.67,5.96-5.96v-14.55h-2.51V215.27
			z"/>
		<path class="st0" d="M215.27,2.07h-14.54v2.51h14.54c1.9,0,3.45,1.55,3.45,3.45v14.55h2.51V8.03
			C221.23,4.74,218.56,2.07,215.27,2.07z"/>
		<path class="st0" d="M127.57,101.78c-0.45-0.29-1.01-0.44-1.68-0.44c-0.54,0-1.03,0.16-1.48,0.47c-0.44,0.32-0.81,0.75-1.1,1.29
			c-0.29,0.54-0.48,1.16-0.57,1.85l0.02,0.06h6.14v-0.32c0-0.64-0.11-1.21-0.34-1.72C128.35,102.47,128.01,102.07,127.57,101.78z"/>
		<path class="st0" d="M118.57,87.43c-10,0-18.1,8.1-18.1,18.1s8.1,18.1,18.1,18.1s18.1-8.1,18.1-18.1S128.57,87.43,118.57,87.43z
			 M119.66,113.26h-0.3V113h-4.11h-0.32v-1.44c-0.41,0.53-0.9,0.94-1.47,1.23c-0.63,0.31-1.36,0.47-2.19,0.47
			c-1.08,0-2.01-0.27-2.79-0.81c-0.78-0.54-1.37-1.29-1.78-2.25c-0.41-0.96-0.62-2.08-0.62-3.36v-0.26c0-1.43,0.21-2.68,0.62-3.76
			c0.41-1.08,1.01-1.91,1.79-2.51c0.78-0.6,1.72-0.89,2.81-0.89c0.79,0,1.48,0.15,2.09,0.44c0.6,0.29,1.12,0.71,1.55,1.26V95.7
			h-2.01v-0.34v-1.56h2.01h2.43v1.91v15.39h2.01V113h0.29V113.26z M131.34,106.91h-8.64l-0.04,0.06c0.02,0.85,0.17,1.61,0.45,2.27
			c0.28,0.66,0.69,1.18,1.22,1.56c0.53,0.38,1.17,0.57,1.92,0.57c0.82,0,1.54-0.12,2.16-0.35c0.62-0.23,1.16-0.56,1.61-0.97
			l0.95,1.58c-0.48,0.46-1.11,0.85-1.89,1.16c-0.78,0.32-1.73,0.47-2.83,0.47c-1.23,0-2.3-0.28-3.21-0.84
			c-0.91-0.56-1.62-1.34-2.11-2.35c-0.5-1-0.74-2.16-0.74-3.47v-0.54c0-1.26,0.26-2.39,0.78-3.39c0.52-1,1.22-1.79,2.08-2.36
			c0.87-0.58,1.81-0.87,2.84-0.87c1.2,0,2.2,0.25,3.01,0.74c0.81,0.49,1.42,1.18,1.83,2.07c0.41,0.89,0.62,1.94,0.62,3.15V106.91z"
			/>
		<path class="st0" d="M113.71,101.9c-0.5-0.33-1.1-0.49-1.8-0.49c-0.77,0-1.41,0.22-1.91,0.66c-0.5,0.44-0.87,1.05-1.12,1.82
			c-0.25,0.78-0.37,1.68-0.37,2.7v0.26c0,1.34,0.27,2.41,0.83,3.23c0.55,0.81,1.4,1.22,2.55,1.22c0.72,0,1.33-0.16,1.82-0.49
			c0.49-0.33,0.9-0.79,1.22-1.39v-6.18C114.62,102.67,114.21,102.23,113.71,101.9z"/>
		<path class="st0" d="M81.44,123.63h11.09v-2.51h-3.81L76.03,87.44h-2.83l-12.79,33.68H56.6v2.51h11.09v-2.51h-4.22l2.99-8.05
			h16.23l2.96,8.05h-4.22V123.63z M67.43,110.46l6.59-17.77l0.52-1.47h0.15l0.5,1.47l6.54,17.77H67.43z"/>
		<polygon class="st0" points="29.79,87.44 29.79,95.37 32.3,95.37 32.3,89.95 42.7,89.95 42.7,121.12 38.65,121.12 38.65,123.63 
			49.73,123.63 49.73,121.12 45.68,121.12 45.68,89.95 56.09,89.95 56.09,95.37 58.6,95.37 58.6,89.95 58.6,87.44 58.6,87.44 
			31.67,87.44 		"/>
		<path class="st0" d="M40.59,36.1v-0.35h-4.05V23.2h8.23c2.55,0,4.71-0.43,6.49-1.31c1.77-0.87,3.12-2.1,4.05-3.68
			c0.93-1.58,1.39-3.44,1.39-5.58c0-2.12-0.46-3.97-1.39-5.56c-0.93-1.58-2.28-2.81-4.05-3.69c-1.77-0.88-3.94-1.32-6.49-1.32H29.5
			v2.51h4.05v31.17H29.5v2.51h11.09V36.1z M36.53,4.58h8.23c3,0,5.24,0.77,6.72,2.3c1.48,1.53,2.22,3.47,2.22,5.8
			c0,2.29-0.75,4.2-2.24,5.73c-1.49,1.53-3.73,2.3-6.71,2.3h-8.23V4.58z"/>
		<path class="st0" d="M70.4,35.75h-4.05V23.2h8.23c0.88,0,1.69-0.07,2.48-0.17l6.6,15.24h1.22h3.85v-2.21v-0.3h-3L79.8,22.41
			c0.44-0.15,0.86-0.32,1.26-0.51c1.77-0.87,3.12-2.1,4.05-3.68c0.93-1.58,1.39-3.44,1.39-5.58c0-2.12-0.46-3.97-1.39-5.56
			c-0.93-1.58-2.28-2.81-4.05-3.69c-1.77-0.88-3.94-1.32-6.49-1.32H59.31v2.51h4.05v31.17h-4.05v2.51H70.4V35.75z M66.35,4.58h8.23
			c3,0,5.24,0.77,6.72,2.3c1.48,1.53,2.22,3.47,2.22,5.8c0,2.29-0.75,4.2-2.24,5.73c-1.49,1.53-3.73,2.3-6.71,2.3h-8.23V4.58z"/>
		<path class="st0" d="M95.99,33.71c1.33,1.62,2.92,2.88,4.77,3.75c1.86,0.88,3.93,1.32,6.21,1.32c2.34,0,4.44-0.44,6.3-1.32
			c1.86-0.88,3.45-2.13,4.76-3.75c1.31-1.62,2.31-3.56,3-5.8c0.69-2.25,1.03-4.74,1.03-7.49v-0.47c0-2.75-0.34-5.25-1.03-7.49
			c-0.69-2.25-1.69-4.18-3.01-5.82c-1.32-1.63-2.91-2.89-4.77-3.77c-1.86-0.88-3.96-1.32-6.3-1.32c-2.29,0-4.36,0.44-6.21,1.32
			C98.88,3.74,97.29,5,95.96,6.63c-1.33,1.63-2.34,3.57-3.05,5.82c-0.7,2.25-1.06,4.74-1.06,7.49v0.47c0,2.75,0.36,5.25,1.07,7.49
			C93.64,30.15,94.66,32.09,95.99,33.71z M94.87,19.89c0-3.13,0.48-5.88,1.45-8.24c0.97-2.36,2.36-4.2,4.16-5.52
			c1.81-1.32,3.96-1.98,6.46-1.98c2.6,0,4.81,0.66,6.61,1.98c1.81,1.32,3.18,3.15,4.11,5.51c0.94,2.35,1.4,5.1,1.4,8.25v0.52
			c0,3.15-0.46,5.91-1.39,8.28c-0.93,2.37-2.29,4.21-4.09,5.52c-1.8,1.31-4.01,1.96-6.62,1.96c-2.5,0-4.66-0.65-6.48-1.96
			c-1.81-1.31-3.21-3.15-4.18-5.52c-0.97-2.37-1.45-5.13-1.45-8.28V19.89z"/>
		<path class="st0" d="M140.2,81.47c2.45,0,4.62-0.4,6.49-1.19c1.87-0.8,3.34-1.91,4.39-3.34c1.05-1.43,1.58-3.11,1.58-5.03
			c0-2.78-1-5.03-3.01-6.75c-2.01-1.71-4.97-3.08-8.9-4.09c-2.42-0.65-4.3-1.32-5.64-2.03c-1.34-0.7-2.29-1.52-2.83-2.44
			c-0.55-0.92-0.82-1.98-0.82-3.19c0-1.26,0.34-2.39,1.03-3.38c0.69-0.99,1.67-1.79,2.95-2.37c1.28-0.59,2.8-0.88,4.57-0.88
			c1.81,0,3.42,0.24,4.85,0.72c1.43,0.48,2.82,1.19,4.03,2.26l0.05,4.85h2.46v-6.46c-1.33-1.14-2.95-2.08-4.86-2.81
			c-1.91-0.73-4.09-1.09-6.53-1.09c-2.3,0-4.32,0.39-6.05,1.18c-1.73,0.79-3.08,1.87-4.04,3.26c-0.96,1.38-1.44,2.98-1.44,4.78
			c0,1.77,0.39,3.3,1.18,4.59c0.79,1.28,2.01,2.38,3.68,3.29c1.67,0.91,3.82,1.71,6.45,2.39c2.45,0.63,4.4,1.33,5.83,2.09
			c1.43,0.76,2.47,1.64,3.11,2.65c0.64,1,0.96,2.17,0.96,3.49c0,1.38-0.39,2.59-1.18,3.64c-0.79,1.05-1.89,1.87-3.31,2.46
			c-1.42,0.59-3.08,0.88-4.98,0.88c-1.61,0-3.2-0.22-4.77-0.67c-1.57-0.45-3.29-1.2-4.9-2.26l-0.03-5.42h-2.49v7.01
			c1.92,1.33,3.92,2.3,5.98,2.93C136.06,81.15,138.13,81.47,140.2,81.47z"/>
		<path class="st0" d="M40.59,78.44h-4.05V65.88h8.23c2.55,0,4.71-0.43,6.49-1.3c1.77-0.87,3.12-2.1,4.05-3.68
			c0.93-1.58,1.39-3.44,1.39-5.58c0-2.12-0.46-3.97-1.39-5.56c-0.93-1.58-2.28-2.81-4.05-3.69c-1.77-0.88-3.94-1.32-6.49-1.32H29.5
			v2.51h4.05v31.17H29.5v2.51h11.09V78.44z M36.53,47.27h8.23c3,0,5.24,0.77,6.72,2.3c1.48,1.53,2.22,3.47,2.22,5.8
			c0,2.29-0.75,4.2-2.24,5.73c-1.49,1.53-3.73,2.3-6.71,2.3h-8.23V47.27z"/>
		<path class="st0" d="M92.85,44.75H81.76v2.51h4.05v22.02c0,2.07-0.41,3.82-1.24,5.26c-0.83,1.43-1.98,2.52-3.46,3.27
			c-1.47,0.75-3.17,1.12-5.07,1.12c-1.91,0-3.59-0.38-5.05-1.13c-1.46-0.75-2.6-1.85-3.42-3.28c-0.82-1.43-1.23-3.18-1.23-5.23
			V47.27h4.05v-2.51H59.32v2.51h4.05v22.02c0,2.59,0.54,4.78,1.62,6.6c1.08,1.81,2.56,3.2,4.46,4.15c1.9,0.95,4.09,1.43,6.57,1.43
			c2.54,0,4.76-0.47,6.69-1.4c1.92-0.94,3.42-2.31,4.49-4.11c1.07-1.81,1.6-4.03,1.6-6.66V47.27h4.05V44.75z"/>
		<polygon class="st0" points="96.42,47.27 100.47,47.27 100.47,78.44 96.42,78.44 96.42,80.95 122.42,80.95 122.42,78.44 
			122.42,73.02 119.91,73.02 119.91,78.44 103.45,78.44 103.45,63.4 118.04,63.4 118.04,60.91 103.45,60.91 103.45,47.27 
			119.91,47.27 119.91,52.68 122.42,52.68 122.42,44.75 122.42,44.75 96.42,44.75 		"/>
		<path class="st0" d="M84.82,130.13h-9.45l-10.36,29.51h-2.96v1.59v5.1v0.05H75.6v-0.05v-5.1v-1.59h-2.06l0.74-2.78h11.63
			l0.78,2.78h-2.04v1.59v5.1v0.05h13.52v-0.05v-5.1v-1.59h-2.96L84.82,130.13z M76.12,150.73l3.43-10.84l0.42-1.39h0.15l0.4,1.27
			l3.53,10.96H76.12z"/>
		<path class="st0" d="M153.57,165.48c2.1-0.92,3.94-2.21,5.52-3.87c1.57-1.66,2.8-3.6,3.68-5.83c0.88-2.23,1.32-4.65,1.32-7.27
			v-0.57c0-2.6-0.44-5.01-1.32-7.23c-0.88-2.22-2.11-4.16-3.69-5.82c-1.58-1.66-3.43-2.95-5.53-3.88c-2.1-0.93-4.38-1.39-6.84-1.39
			c-2.5,0-4.8,0.46-6.89,1.39c-2.09,0.93-3.9,2.22-5.43,3.88c-1.53,1.66-2.72,3.6-3.55,5.82c-0.84,2.22-1.26,4.63-1.26,7.23v0.57
			c0,2.62,0.42,5.04,1.26,7.27c0.84,2.23,2.03,4.17,3.57,5.83c1.54,1.66,3.36,2.95,5.46,3.87c2.1,0.92,4.4,1.38,6.9,1.38
			C149.19,166.86,151.46,166.4,153.57,165.48z M139.21,154.7c-0.6-1.77-0.91-3.82-0.91-6.18v-0.62c0-2.35,0.3-4.4,0.89-6.14
			c0.6-1.74,1.51-3.09,2.75-4.05c1.23-0.96,2.82-1.44,4.76-1.44c1.84,0,3.41,0.49,4.7,1.47c1.29,0.98,2.28,2.34,2.97,4.09
			c0.69,1.75,1.03,3.77,1.03,6.08v0.62c0,2.35-0.34,4.41-1.02,6.16c-0.68,1.76-1.67,3.12-2.96,4.1c-1.29,0.98-2.85,1.47-4.67,1.47
			c-1.92,0-3.51-0.48-4.76-1.45C140.75,157.83,139.82,156.46,139.21,154.7z"/>
		<polygon class="st0" points="65.87,130.18 65.87,130.13 50.7,130.13 50.7,130.18 50.7,136.86 54.25,136.86 47.97,157.54 
			47.82,157.54 41.32,136.86 44.21,136.86 44.21,130.18 44.21,130.13 27.98,130.13 27.98,130.18 27.98,136.86 31.85,136.86 
			42.75,166.37 52.19,166.37 61.95,136.86 65.87,136.86 		"/>
		<polygon class="st0" points="116.94,166.32 121.09,166.32 121.09,166.37 127.83,166.37 127.83,166.32 127.83,154.58 
			121.09,154.58 121.09,159.63 116.94,159.63 112.37,159.63 112.37,136.86 116.94,136.86 116.94,135.25 116.94,130.13 
			112.37,130.13 103.64,130.13 99.89,130.13 99.89,135.25 99.89,136.86 103.64,136.86 103.64,159.63 99.89,159.63 99.89,161.22 
			99.89,166.32 99.89,166.37 116.94,166.37 		"/>
		<path class="st0" d="M181.77,166.32v-5.1v-1.59h-3.75v-6.41l5.93,0.07l4.51,13.08h0.25h10.29v-5.07v-1.67h-3.76l-3.47-8.5
			c1.6-1.03,2.91-2.3,3.89-3.85c1.15-1.82,1.73-3.79,1.73-5.92c0-2.3-0.57-4.3-1.71-5.98c-1.14-1.68-2.77-2.98-4.87-3.89
			c-2.1-0.91-4.59-1.37-7.46-1.37h-7.73h-9h-1.07v6.74h3.75v22.77h-3.75v6.74h16.23V166.32z M178.01,136.81h5.32
			c1.72,0,3.05,0.47,3.98,1.4c0.93,0.94,1.39,2.18,1.39,3.72c0,1.49-0.46,2.63-1.37,3.42c-0.91,0.79-2.21,1.18-3.9,1.18h-5.42
			V136.81z"/>
		<g>
			<path class="st0" d="M118.56,184.26c-0.68-0.52-1.5-0.78-2.46-0.78c-0.85,0-1.59,0.18-2.21,0.54c-0.62,0.36-1.13,0.86-1.52,1.5
				v-7.1h-3.02v0.97l1.7,0.14v16.1h1.14l0.13-1.73c0.39,0.62,0.9,1.1,1.54,1.45c0.64,0.35,1.39,0.52,2.27,0.52
				c0.95,0,1.76-0.24,2.44-0.73c0.68-0.49,1.2-1.17,1.57-2.04c0.36-0.88,0.55-1.91,0.55-3.1v-0.23c0-1.27-0.18-2.38-0.55-3.32
				C119.77,185.51,119.24,184.78,118.56,184.26z M119.34,190.01c0,1.44-0.29,2.59-0.88,3.45c-0.58,0.86-1.45,1.29-2.6,1.29
				c-0.88,0-1.61-0.2-2.2-0.61c-0.59-0.41-1.02-0.96-1.3-1.65v-5.38c0.27-0.71,0.69-1.3,1.24-1.77c0.55-0.47,1.3-0.7,2.23-0.7
				c0.77,0,1.42,0.22,1.94,0.65c0.52,0.43,0.91,1.04,1.17,1.81c0.26,0.77,0.39,1.67,0.39,2.69V190.01z"/>
			<path class="st0" d="M130.17,184.68l1.56,0.1l-3.41,9.06h-0.07l-0.5-1.36l-3.07-7.7l1.51-0.1v-0.97h-4.2v0.97l1.29,0.08
				l4.38,10.75l-0.62,1.62c-0.28,0.7-0.59,1.24-0.93,1.62c-0.34,0.38-0.79,0.57-1.37,0.57c-0.09,0-0.23-0.01-0.41-0.03
				c-0.19-0.02-0.33-0.03-0.44-0.05l-0.15,1.09c0.11,0.03,0.27,0.06,0.49,0.09c0.22,0.03,0.4,0.05,0.56,0.05
				c0.63,0,1.16-0.12,1.58-0.37c0.42-0.25,0.77-0.59,1.05-1.03c0.28-0.44,0.53-0.94,0.75-1.5l4.9-12.81l1.27-0.08v-0.97h-4.17
				V184.68z"/>
			<polygon class="st0" points="140.65,183.98 143.09,183.98 143.27,182.06 146.19,182.06 146.19,193.38 144.47,193.71 
				144.47,195.64 151.14,195.64 151.14,193.71 149.41,193.38 149.41,182.06 152.36,182.06 152.53,183.98 154.98,183.98 
				154.98,179.58 140.65,179.58 			"/>
			<polygon class="st0" points="166.22,193.17 161.03,193.17 161.03,188.58 166.47,188.58 166.47,186.1 161.03,186.1 161.03,182.06 
				165.95,182.06 166.1,183.91 168.57,183.91 168.57,179.58 156.1,179.58 156.1,181.52 157.81,181.85 157.81,193.38 156.1,193.71 
				156.1,195.64 168.81,195.64 168.81,191.25 166.36,191.25 			"/>
			<path class="st0" d="M178.01,179.35c-1.55,0-2.89,0.34-4.02,1.03c-1.13,0.68-1.99,1.63-2.6,2.83c-0.61,1.2-0.91,2.58-0.91,4.14
				v0.54c0,1.63,0.32,3.05,0.94,4.24c0.63,1.2,1.52,2.12,2.68,2.77c1.15,0.65,2.51,0.98,4.07,0.98c1.14,0,2.18-0.14,3.11-0.42
				c0.93-0.28,1.71-0.63,2.34-1.04v-3.84h-2.39l-0.33,2.26c-0.38,0.17-0.81,0.31-1.27,0.41c-0.47,0.11-0.93,0.16-1.4,0.16
				c-0.93,0-1.73-0.23-2.41-0.68c-0.68-0.45-1.2-1.09-1.57-1.91c-0.37-0.82-0.55-1.8-0.55-2.92v-0.56c0-1.13,0.17-2.1,0.52-2.92
				c0.35-0.82,0.85-1.45,1.51-1.9c0.66-0.45,1.44-0.67,2.35-0.67c0.39,0,0.75,0.03,1.09,0.1c0.33,0.07,0.65,0.16,0.93,0.29
				c0.29,0.12,0.55,0.28,0.79,0.45l0.33,2.44h2.39v-3.88c-0.75-0.63-1.6-1.1-2.55-1.41C180.12,179.5,179.1,179.35,178.01,179.35z"/>
			<path class="st0" d="M199.25,184.25c-0.35-0.99-0.85-1.85-1.5-2.59c-0.65-0.74-1.42-1.31-2.32-1.71c-0.9-0.4-1.89-0.61-2.98-0.61
				c-1.08,0-2.07,0.2-2.96,0.61c-0.89,0.4-1.65,0.98-2.29,1.71s-1.13,1.6-1.48,2.59c-0.35,0.99-0.52,2.07-0.52,3.24v0.24
				c0,1.18,0.17,2.26,0.52,3.25c0.35,0.99,0.84,1.85,1.48,2.58c0.64,0.73,1.41,1.3,2.3,1.7c0.89,0.4,1.88,0.61,2.96,0.61
				c1.09,0,2.08-0.2,2.97-0.61c0.89-0.4,1.66-0.97,2.31-1.7c0.65-0.73,1.15-1.59,1.5-2.58c0.35-0.99,0.52-2.07,0.52-3.25v-0.24
				C199.77,186.32,199.6,185.24,199.25,184.25z M196.56,187.73c0,1.13-0.15,2.11-0.46,2.96c-0.31,0.85-0.76,1.5-1.36,1.98
				c-0.6,0.47-1.36,0.71-2.27,0.71c-0.9,0-1.65-0.24-2.25-0.71c-0.6-0.47-1.05-1.13-1.35-1.98c-0.3-0.85-0.45-1.83-0.45-2.96v-0.26
				c0-1.13,0.15-2.11,0.45-2.95c0.3-0.84,0.75-1.49,1.34-1.96c0.6-0.47,1.34-0.7,2.24-0.7c0.9,0,1.66,0.24,2.27,0.71
				c0.61,0.47,1.07,1.13,1.37,1.97c0.31,0.84,0.46,1.82,0.46,2.93V187.73z"/>
		</g>
	</g>
</g>
</svg>
