<?xml version="1.0" encoding="utf-8"?>
<!-- Generator: Adobe Illustrator 24.1.0, SVG Export Plug-In . SVG Version: 6.00 Build 0)  -->
<svg version="1.1" id="Layer_1" xmlns="http://www.w3.org/2000/svg" xmlns:xlink="http://www.w3.org/1999/xlink" x="0px" y="0px"
	 viewBox="0 0 24 24" style="enable-background:new 0 0 24 24;" xml:space="preserve">
<style type="text/css">
	.st0{fill:#FFFFFF;}
</style>
<title>Untitled-5</title>
<g>
	<path class="st0" d="M23.4,7.5L23.4,7.5C23.4,7.2,23.1,7,22.8,7c-0.1,0-0.1,0-0.2,0c0,0,0,0,0,0L15,9v6l5.3,1.4l0,0l2.3,0.6
		c0.1,0,0.1,0,0.2,0c0.3,0,0.5-0.2,0.6-0.5c0,0,0,0,0,0C24.2,13.6,24.2,10.5,23.4,7.5z"/>
	<path class="st0" d="M14,17.8V6.2C14,5.5,13.5,5,12.9,5H1.2C0.5,5,0,5.5,0,6.2v11.7C0,18.5,0.5,19,1.2,19h11.7
		C13.5,19,14,18.5,14,17.8z M10.4,8.8L8,13.1c-0.1,0.1-0.1,0.3-0.1,0.4v2.2c0,0.4-0.3,0.8-0.8,0.8H6.9c-0.4,0-0.8-0.3-0.8-0.8v-2.1
		c0-0.1,0-0.3-0.1-0.4L3.6,8.8C3.4,8.4,3.5,7.9,3.9,7.7C4,7.6,4.2,7.6,4.3,7.6h0.2C4.8,7.6,5,7.8,5.2,8l1.7,3.3
		C7,11.5,7,11.7,7.1,11.9h0c0-0.2,0.1-0.4,0.2-0.5L9.1,8c0.1-0.3,0.4-0.4,0.7-0.4c0.4,0,0.8,0.4,0.8,0.8C10.5,8.5,10.5,8.7,10.4,8.8
		z"/>
	<path class="st0" d="M15,6.2V8l5-1.3c-0.2-0.5-0.3-1-0.5-1.4c-0.8-1.9-1.9-3.6-3.3-5c0,0,0,0,0,0c-0.2-0.2-0.7-0.3-0.9,0L11.6,4
		h1.3C14.1,4,15,5,15,6.2z"/>
	<path class="st0" d="M15,17.8c0,1.2-1,2.2-2.2,2.2h-1.3l3.8,3.8c0.2,0.2,0.7,0.2,0.9,0c0,0,0,0,0,0c1.4-1.5,2.5-3.2,3.3-5
		c0.2-0.5,0.4-0.9,0.5-1.4L15,16V17.8z"/>
</g>
</svg>
