<?xml version="1.0" encoding="utf-8"?>
<!-- Generator: Adobe Illustrator 24.1.0, SVG Export Plug-In . SVG Version: 6.00 Build 0)  -->
<svg version="1.1" id="Layer_1" xmlns="http://www.w3.org/2000/svg" xmlns:xlink="http://www.w3.org/1999/xlink" x="0px" y="0px"
	 viewBox="0 0 24 24" style="enable-background:new 0 0 24 24;" xml:space="preserve">
<style type="text/css">
	.st0{fill:#28A8EA;}
	.st1{fill:#0078D4;}
	.st2{fill:#0358A7;}
	.st3{fill:#145475;}
	.st4{fill:#003C6A;}
	.st5{fill:#012C53;}
	.st6{fill:#F9F7F7;}
</style>
<title>Untitled-5</title>
<g>
	<path class="st0" d="M19.5,5.2c-0.8-1.9-1.9-3.6-3.3-5c0,0,0,0,0,0c-0.2-0.2-0.7-0.3-0.9,0L10.5,5h2.3C13.5,5,14,5.5,14,6.2v3.1
		l6.3-1.6l0,0C20.1,6.8,19.9,6,19.5,5.2z"/>
	<path class="st1" d="M23.4,7.5L23.4,7.5C23.4,7.1,23,6.9,22.7,7c0,0,0,0,0,0L14,9.3v5.5l6.3,1.7l0,0l2.3,0.6
		c0.3,0.1,0.7-0.1,0.8-0.4c0,0,0,0,0,0C24.2,13.6,24.2,10.5,23.4,7.5z"/>
	<path class="st2" d="M14,14.7v3.1c0,0.6-0.5,1.2-1.2,1.2h-2.3l4.8,4.8c0.2,0.2,0.7,0.2,0.9,0c0,0,0,0,0,0c1.4-1.5,2.5-3.2,3.3-5
		c0.3-0.8,0.6-1.6,0.8-2.4L14,14.7z"/>
	<path class="st3" d="M15,9V7.2c0-0.6-0.5-1.1-1-1.1c0,0,0,0.1,0,0.1v3.1L15,9z"/>
	<polygon class="st4" points="15,9 14,9.3 14,14.7 15,15 	"/>
	<path class="st5" d="M14,14.7v3.1c0,0.6-0.5,1.2-1.2,1.2h-2.3l1,1h2.1c0.7,0,1.3-0.6,1.4-1.4V15L14,14.7z"/>
	<path id="Back_Plate_1_" class="st1" d="M1.2,5h11.7C13.5,5,14,5.5,14,6.2v11.7c0,0.6-0.5,1.2-1.2,1.2H1.2C0.5,19,0,18.5,0,17.8
		V6.2C0,5.5,0.5,5,1.2,5z"/>
	<path class="st6" d="M6.9,11.4C7,11.5,7,11.7,7.1,11.9h0c0-0.2,0.1-0.4,0.2-0.5L9.1,8c0.1-0.3,0.4-0.4,0.7-0.4l0,0
		c0.4,0,0.8,0.4,0.8,0.8c0,0.1,0,0.3-0.1,0.4L8,13.1c-0.1,0.1-0.1,0.3-0.1,0.4v2.2c0,0.4-0.3,0.8-0.8,0.8H6.9
		c-0.4,0-0.8-0.3-0.8-0.8l0,0v-2.1c0-0.1,0-0.3-0.1-0.4L3.6,8.8C3.4,8.4,3.5,7.9,3.9,7.7C4,7.6,4.2,7.6,4.3,7.6h0.2
		C4.8,7.6,5,7.8,5.2,8L6.9,11.4z"/>
</g>
</svg>
